<svg width="235" height="65" viewBox="0 0 235 65" fill="none" xmlns="http://www.w3.org/2000/svg">
<g clip-path="url(#clip0_5483_1343)">
<path d="M62.5549 32.6786C62.5549 49.9566 48.5477 63.9561 31.2775 63.9561C14.0073 63.9561 0 49.9566 0 32.6786C0 15.4006 13.9995 1.40112 31.2775 1.40112C48.5554 1.40112 62.5549 15.4006 62.5549 32.6786Z" fill="#011F5B"/>
<path d="M12.1505 38.3576H23.9203C24.8759 38.3576 25.6606 37.5807 25.6606 36.6174V36.1435C25.6606 35.5142 26.1733 35.0015 26.8026 35.0015H40.569C40.7322 35.0015 40.872 34.8694 40.872 34.6985C40.872 34.5276 40.7399 34.3955 40.569 34.3955H26.8026C25.8393 34.3955 25.0624 35.1802 25.0624 36.1357V36.6096C25.0624 37.2389 24.5496 37.7517 23.9203 37.7517H12.1505C11.9874 37.7517 11.8475 37.8837 11.8475 38.0546C11.8475 38.2256 11.9796 38.3576 12.1505 38.3576Z" fill="white"/>
<path d="M26.6162 64.5C26.3054 64.5 25.9791 64.4379 25.6761 64.3135C25.4664 64.2281 20.5021 62.0606 19.2979 55.224C17.7674 46.5694 24.4875 43.0812 29.8869 40.2766C34.6725 37.7906 37.578 36.0426 37.578 32.7874C37.578 28.9108 35.0842 26.9608 31.0133 24.1018C26.9735 21.274 22.4054 18.0576 22.4054 11.4852C22.4054 6.21786 25.4431 3.12585 28.0922 1.01271C29.1255 0.189211 30.6404 0.360126 31.4639 1.39339C32.2874 2.42665 32.1165 3.94158 31.0833 4.76508C28.2942 6.98698 27.2066 8.86705 27.2066 11.4774C27.2066 15.3541 29.7004 17.3041 33.7713 20.1552C37.8111 22.9909 42.3792 26.1994 42.3792 32.7719C42.3792 39.3444 36.9177 42.0169 32.101 44.5184C26.5229 47.4162 23.1512 49.4361 24.0291 54.3694C24.7672 58.5335 27.4707 59.8309 27.5873 59.8853C28.807 60.398 29.3663 61.8042 28.8458 63.0239C28.4574 63.9406 27.564 64.4845 26.6239 64.4845" fill="white"/>
<path d="M26.6084 63.1015C26.4763 63.1015 26.3442 63.0782 26.2199 63.0238C26.0413 62.9461 21.7528 61.0738 20.673 54.983C19.3212 47.3384 25.2721 44.2464 30.5317 41.5196C34.8745 39.2666 38.9764 37.1301 38.9764 32.7873C38.9764 27.9862 35.496 25.539 31.8135 22.9597C27.8747 20.194 23.7961 17.335 23.7961 11.4929C23.7961 6.82376 26.554 4.03473 28.9546 2.11582C29.3819 1.77399 30.0189 1.84391 30.3608 2.2712C30.7026 2.70626 30.6327 3.33554 30.2054 3.67737C27.9136 5.50305 25.8004 7.70941 25.8004 11.4851C25.8004 16.2863 29.2809 18.7334 32.9633 21.3127C36.9021 24.0784 40.9808 26.9374 40.9808 32.7796C40.9808 38.6218 36.1408 40.8514 31.4562 43.2831C26.3675 45.9245 21.5508 48.4261 22.6463 54.6256C23.5319 59.6521 26.9658 61.1515 26.9968 61.167C27.5018 61.3846 27.7426 61.9672 27.5329 62.48C27.3697 62.8607 27.0046 63.0937 26.6084 63.0937" fill="#990001"/>
<path d="M31.091 12.0833H27.0823C26.6395 12.0833 26.2821 11.7259 26.2821 11.2831C26.2821 10.8403 26.6395 10.4829 27.0823 10.4829H31.091C31.5338 10.4829 31.8912 10.8403 31.8912 11.2831C31.8912 11.7259 31.5338 12.0833 31.091 12.0833Z" fill="white"/>
<path d="M32.2175 25.0962H25.9946C25.5518 25.0962 25.1944 24.7389 25.1944 24.296C25.1944 23.8532 25.5518 23.4958 25.9946 23.4958H32.2175C32.6603 23.4958 33.0177 23.8532 33.0177 24.296C33.0177 24.7389 32.6603 25.0962 32.2175 25.0962Z" fill="white"/>
<path d="M35.8533 28.4524H29.6305C29.1877 28.4524 28.8303 28.0951 28.8303 27.6522C28.8303 27.2094 29.1877 26.8521 29.6305 26.8521H35.8533C36.2962 26.8521 36.6535 27.2094 36.6535 27.6522C36.6535 28.0951 36.2962 28.4524 35.8533 28.4524Z" fill="white"/>
<path d="M37.6402 31.9251H31.4173C30.9745 31.9251 30.6171 31.5677 30.6171 31.1249C30.6171 30.6821 30.9745 30.3247 31.4173 30.3247H37.6402C38.083 30.3247 38.4404 30.6821 38.4404 31.1249C38.4404 31.5677 38.083 31.9251 37.6402 31.9251Z" fill="white"/>
<path d="M37.6402 35.4366H31.4173C30.9745 35.4366 30.6171 35.0792 30.6171 34.6364C30.6171 34.1935 30.9745 33.8362 31.4173 33.8362H37.6402C38.083 33.8362 38.4404 34.1935 38.4404 34.6364C38.4404 35.0792 38.083 35.4366 37.6402 35.4366Z" fill="white"/>
<path d="M34.5326 39.1658H28.3097C27.8669 39.1658 27.5096 38.8085 27.5096 38.3656C27.5096 37.9228 27.8669 37.5654 28.3097 37.5654H34.5326C34.9754 37.5654 35.3328 37.9228 35.3328 38.3656C35.3328 38.8085 34.9754 39.1658 34.5326 39.1658Z" fill="white"/>
<path d="M33.0488 15.3074H27.3853C26.9424 15.3074 26.5851 14.9501 26.5851 14.5072C26.5851 14.0644 26.9424 13.707 27.3853 13.707H33.0488C33.4916 13.707 33.849 14.0644 33.849 14.5072C33.849 14.9501 33.4916 15.3074 33.0488 15.3074Z" fill="white"/>
<path d="M34.991 18.6636H30.0189C29.4751 18.6636 29.0323 18.3063 29.0323 17.8634C29.0323 17.4206 29.4751 17.0632 30.0189 17.0632H34.991C35.5348 17.0632 35.9776 17.4206 35.9776 17.8634C35.9776 18.3063 35.5348 18.6636 34.991 18.6636Z" fill="white"/>
<path d="M32.0466 48.636H25.8237C25.3809 48.636 25.0235 48.2787 25.0235 47.8358C25.0235 47.393 25.3809 47.0356 25.8237 47.0356H32.0466C32.4894 47.0356 32.8468 47.393 32.8468 47.8358C32.8468 48.2787 32.4894 48.636 32.0466 48.636Z" fill="white"/>
<path d="M30.6948 51.8523H24.4719C24.0291 51.8523 23.6717 51.495 23.6717 51.0521C23.6717 50.6093 24.0291 50.252 24.4719 50.252H30.6948C31.1376 50.252 31.495 50.6093 31.495 51.0521C31.495 51.495 31.1376 51.8523 30.6948 51.8523Z" fill="white"/>
<path d="M26.9502 55.2085H23.6562C23.2134 55.2085 22.856 54.8512 22.856 54.4083C22.856 53.9655 23.2134 53.6082 23.6562 53.6082H26.9502C27.393 53.6082 27.7504 53.9655 27.7504 54.4083C27.7504 54.8512 27.393 55.2085 26.9502 55.2085Z" fill="white"/>
<path d="M31.4639 31.428H5.6169C5.42268 31.428 5.2673 31.2959 5.2673 31.125C5.2673 30.9541 5.42268 30.822 5.6169 30.822H31.4639C31.6582 30.822 31.8135 30.9541 31.8135 31.125C31.8135 31.2959 31.6582 31.428 31.4639 31.428Z" fill="white"/>
<path d="M31.9767 27.9475H22.8483C21.8927 27.9475 21.108 27.1706 21.108 26.2073V25.7333C21.108 25.1041 20.5953 24.5913 19.966 24.5913H10.0685C9.90531 24.5913 9.76547 24.4593 9.76547 24.2883C9.76547 24.1174 9.89754 23.9854 10.0685 23.9854H19.966C20.9293 23.9854 21.7062 24.77 21.7062 25.7256V26.1995C21.7062 26.8288 22.219 27.3415 22.8483 27.3415H31.9767C32.1398 27.3415 32.2797 27.4736 32.2797 27.6445C32.2797 27.8154 32.1476 27.9475 31.9767 27.9475Z" fill="white"/>
<path d="M7.12405 24.2728C7.12405 25.7333 8.30492 26.9142 9.76547 26.9142C11.226 26.9142 12.4069 25.7333 12.4069 24.2728C12.4069 22.8122 11.226 21.6313 9.76547 21.6313C8.30492 21.6313 7.12405 22.8122 7.12405 24.2728Z" fill="#B6BF12"/>
<path d="M6.74338 24.2728C6.74338 22.6025 8.10293 21.2507 9.77324 21.2507C11.4435 21.2507 12.7953 22.6103 12.7953 24.2728C12.7953 25.9354 11.4358 27.3027 9.77324 27.3027C8.1107 27.3027 6.74338 25.9431 6.74338 24.2728ZM7.50473 24.2728C7.50473 25.5236 8.52245 26.5336 9.76547 26.5336C11.0085 26.5336 12.0262 25.5158 12.0262 24.2728C12.0262 23.0298 11.0085 22.0121 9.76547 22.0121C8.52245 22.0121 7.50473 23.0298 7.50473 24.2728Z" fill="white"/>
<path d="M1.83345 31.1248C1.83345 32.5854 3.01432 33.7662 4.47487 33.7662C5.93541 33.7662 7.11628 32.5854 7.11628 31.1248C7.11628 29.6643 5.93541 28.4834 4.47487 28.4834C3.01432 28.4834 1.83345 29.6643 1.83345 31.1248Z" fill="#B31982"/>
<path d="M1.45277 31.1249C1.45277 29.4546 2.81233 28.1028 4.48263 28.1028C6.15294 28.1028 7.50472 29.4623 7.50472 31.1249C7.50472 32.7874 6.14517 34.1547 4.48263 34.1547C2.8201 34.1547 1.45277 32.7952 1.45277 31.1249ZM2.21412 31.1249C2.21412 32.3757 3.23185 33.3856 4.47486 33.3856C5.71788 33.3856 6.73561 32.3679 6.73561 31.1249C6.73561 29.8819 5.71788 28.8641 4.47486 28.8641C3.23185 28.8641 2.21412 29.8819 2.21412 31.1249Z" fill="white"/>
<path d="M10.1617 38.1014C10.1617 39.5619 11.3426 40.7428 12.8031 40.7428C14.2636 40.7428 15.4445 39.5619 15.4445 38.1014C15.4445 36.6408 14.2636 35.46 12.8031 35.46C11.3426 35.46 10.1617 36.6408 10.1617 38.1014Z" fill="#0F8F46"/>
<path d="M9.78101 38.1014C9.78101 36.4311 11.1406 35.0793 12.8109 35.0793C14.4812 35.0793 15.833 36.4389 15.833 38.1014C15.833 39.764 14.4734 41.1313 12.8109 41.1313C11.1483 41.1313 9.78101 39.7717 9.78101 38.1014ZM10.5424 38.1014C10.5424 39.3522 11.5601 40.3622 12.8031 40.3622C14.0461 40.3622 15.0638 39.3445 15.0638 38.1014C15.0638 36.8584 14.0461 35.8407 12.8031 35.8407C11.5601 35.8407 10.5424 36.8584 10.5424 38.1014Z" fill="white"/>
<path d="M20.0359 11.5086C20.0359 12.6584 19.1037 13.5907 17.9539 13.5907C16.8041 13.5907 15.8796 12.6584 15.8796 11.5086C15.8796 10.3588 16.8118 9.43433 17.9539 9.43433C19.0959 9.43433 20.0359 10.3666 20.0359 11.5086Z" fill="white"/>
<path d="M31.5339 54.4083C31.5339 55.0764 30.99 55.6125 30.3297 55.6125C29.6693 55.6125 29.1255 55.0686 29.1255 54.4083C29.1255 53.7479 29.6693 53.2041 30.3297 53.2041C30.99 53.2041 31.5339 53.7479 31.5339 54.4083Z" fill="white"/>
<path d="M41.8664 24.0941C41.8664 24.5913 41.4624 24.9875 40.973 24.9875C40.4836 24.9875 40.0796 24.5913 40.0796 24.0941C40.0796 23.5969 40.4758 23.2007 40.973 23.2007C41.4702 23.2007 41.8664 23.5969 41.8664 24.0941Z" fill="white"/>
<path d="M43.6921 28.7321C43.529 28.7321 43.3814 28.6311 43.3192 28.4758C43.0862 27.862 42.7987 27.2716 42.4647 26.72C42.3481 26.5336 42.4103 26.285 42.5967 26.1684C42.7832 26.0519 43.0318 26.114 43.1483 26.3005C43.5134 26.8909 43.8164 27.528 44.0728 28.1883C44.1505 28.3981 44.0495 28.6234 43.8397 28.7011C43.7931 28.7166 43.7465 28.7244 43.6999 28.7244" fill="white"/>
<path d="M40.5457 41.675C40.437 41.675 40.3282 41.6284 40.2505 41.5429C40.1029 41.3798 40.1107 41.1234 40.2738 40.9758C43.4746 38.0392 44.7565 33.8129 43.6921 29.6721C43.6378 29.4546 43.7698 29.237 43.9796 29.1827C44.1971 29.1283 44.4146 29.2604 44.469 29.4701C45.6033 33.8984 44.236 38.4199 40.8099 41.5663C40.7322 41.6362 40.639 41.675 40.538 41.675" fill="white"/>
<path d="M32.2408 14.8103H45.6188C45.7586 14.8103 45.8829 14.6782 45.8829 14.5073C45.8829 14.3364 45.7664 14.2043 45.6188 14.2043H32.2408C32.0932 14.2043 31.9767 14.3364 31.9767 14.5073C31.9767 14.6782 32.0932 14.8103 32.2408 14.8103Z" fill="white"/>
<path d="M40.6389 14.5074C40.6389 15.9679 41.8198 17.1488 43.2804 17.1488C44.7409 17.1488 45.9218 15.9679 45.9218 14.5074C45.9218 13.0468 44.7409 11.866 43.2804 11.866C41.8198 11.866 40.6389 13.0468 40.6389 14.5074Z" fill="#F2C102"/>
<path d="M40.2583 14.5072C40.2583 12.8369 41.6178 11.4851 43.2881 11.4851C44.9584 11.4851 46.3102 12.8447 46.3102 14.5072C46.3102 16.1697 44.9507 17.5371 43.2881 17.5371C41.6256 17.5371 40.2583 16.1775 40.2583 14.5072ZM41.0274 14.5072C41.0274 15.758 42.0451 16.7679 43.2881 16.7679C44.5312 16.7679 45.5489 15.7502 45.5489 14.5072C45.5489 13.2642 44.5312 12.2465 43.2881 12.2465C42.0451 12.2465 41.0274 13.2642 41.0274 14.5072Z" fill="white"/>
<path d="M30.4617 51.355H45.611C45.7509 51.355 45.8752 51.2229 45.8752 51.052C45.8752 50.8811 45.7587 50.749 45.611 50.749H30.4617C30.3141 50.749 30.1976 50.8811 30.1976 51.052C30.1976 51.2229 30.3141 51.355 30.4617 51.355Z" fill="white"/>
<path d="M40.6389 51.0521C40.6389 52.5126 41.8198 53.6935 43.2804 53.6935C44.7409 53.6935 45.9218 52.5126 45.9218 51.0521C45.9218 49.5915 44.7409 48.4106 43.2804 48.4106C41.8198 48.4106 40.6389 49.5915 40.6389 51.0521Z" fill="#81AFD3"/>
<path d="M40.2583 51.0521C40.2583 49.3818 41.6178 48.03 43.2881 48.03C44.9584 48.03 46.3102 49.3896 46.3102 51.0521C46.3102 52.7147 44.9507 54.082 43.2881 54.082C41.6256 54.082 40.2583 52.7224 40.2583 51.0521ZM41.0274 51.0521C41.0274 52.3029 42.0451 53.3129 43.2881 53.3129C44.5312 53.3129 45.5489 52.2951 45.5489 51.0521C45.5489 49.8091 44.5312 48.7914 43.2881 48.7914C42.0451 48.7914 41.0274 49.8091 41.0274 51.0521Z" fill="white"/>
</g>
<path d="M84.8749 24.5H81.6549L80.3749 21.36H74.4549L73.1749 24.5H70.0349L76.0349 10.4H78.8749L84.8749 24.5ZM79.2749 18.64L77.4149 14.1L75.5549 18.64H79.2749ZM90.2557 24.5H87.1757V10.5H90.2557V24.5ZM105.854 24.5H102.254L99.2545 20.02H96.8345V24.5H93.7545V10.5H100.154C101.808 10.5 103.101 10.9133 104.034 11.74C104.968 12.5533 105.434 13.68 105.434 15.12V15.16C105.434 17.3067 104.434 18.7533 102.434 19.5L105.854 24.5ZM102.314 15.32V15.28C102.314 14.6267 102.101 14.1333 101.674 13.8C101.248 13.4533 100.654 13.28 99.8945 13.28H96.8345V17.3H99.9545C100.688 17.3 101.261 17.12 101.674 16.76C102.101 16.4 102.314 15.92 102.314 15.32ZM118.868 13.3H111.288V16.28H117.968V19.08H111.288V24.5H108.208V10.5H118.868V13.3ZM131.8 19.16C131.8 20.72 131.24 22.04 130.12 23.12C129.013 24.2 127.633 24.74 125.98 24.74C124.326 24.74 122.946 24.2067 121.84 23.14C120.746 22.06 120.2 20.7467 120.2 19.2V19.16C120.2 17.6 120.753 16.28 121.86 15.2C122.98 14.12 124.366 13.58 126.02 13.58C127.673 13.58 129.046 14.12 130.14 15.2C131.246 16.2667 131.8 17.5733 131.8 19.12V19.16ZM128.8 19.2V19.16C128.8 18.3467 128.533 17.6533 128 17.08C127.48 16.4933 126.806 16.2 125.98 16.2C125.14 16.2 124.466 16.48 123.96 17.04C123.453 17.6 123.2 18.2933 123.2 19.12V19.16C123.2 19.9733 123.46 20.6733 123.98 21.26C124.513 21.8333 125.193 22.12 126.02 22.12C126.86 22.12 127.533 21.84 128.04 21.28C128.546 20.72 128.8 20.0267 128.8 19.2ZM143.741 24.5H140.701V22.98C139.808 24.1267 138.761 24.7 137.561 24.7C136.414 24.7 135.521 24.3467 134.881 23.64C134.241 22.9333 133.921 21.96 133.921 20.72V13.78H136.961V19.76C136.961 20.4667 137.121 21.0067 137.441 21.38C137.761 21.7533 138.214 21.94 138.801 21.94C139.388 21.94 139.848 21.7533 140.181 21.38C140.528 21.0067 140.701 20.4667 140.701 19.76V13.78H143.741V24.5ZM156.282 24.5H153.242V18.52C153.242 17.8133 153.082 17.2733 152.762 16.9C152.442 16.5267 151.988 16.34 151.402 16.34C150.815 16.34 150.348 16.5267 150.002 16.9C149.668 17.2733 149.502 17.8133 149.502 18.52V24.5H146.462V13.78H149.502V15.3C150.395 14.1533 151.442 13.58 152.642 13.58C153.788 13.58 154.682 13.9333 155.322 14.64C155.962 15.3467 156.282 16.32 156.282 17.56V24.5ZM169.703 24.5H166.663V22.96C165.809 24.12 164.696 24.7 163.323 24.7C161.989 24.7 160.843 24.2067 159.883 23.22C158.923 22.22 158.443 20.8667 158.443 19.16V19.12C158.443 17.4133 158.916 16.0667 159.863 15.08C160.823 14.08 161.976 13.58 163.323 13.58C164.656 13.58 165.769 14.1133 166.663 15.18V9.9H169.703V24.5ZM166.703 19.16V19.12C166.703 18.2533 166.449 17.5467 165.943 17C165.449 16.44 164.836 16.16 164.103 16.16C163.369 16.16 162.749 16.4333 162.243 16.98C161.736 17.5267 161.483 18.24 161.483 19.12V19.16C161.483 20.0267 161.736 20.74 162.243 21.3C162.749 21.8467 163.369 22.12 164.103 22.12C164.836 22.12 165.449 21.8467 165.943 21.3C166.449 20.74 166.703 20.0267 166.703 19.16ZM178.879 16.76H178.719C177.679 16.76 176.872 17.08 176.299 17.72C175.739 18.3467 175.459 19.2867 175.459 20.54V24.5H172.419V13.78H175.459V15.94C176.152 14.3 177.292 13.5133 178.879 13.58V16.76ZM190.978 13.78L186.858 24.76C186.445 25.8667 185.978 26.64 185.458 27.08C184.938 27.5333 184.232 27.76 183.338 27.76C182.378 27.76 181.478 27.5133 180.638 27.02L181.658 24.82C182.125 25.1 182.558 25.24 182.958 25.24C183.438 25.24 183.792 25.0067 184.018 24.54L179.818 13.78H183.038L185.478 21.08L187.818 13.78H190.978Z" fill="#990001"/>
<path d="M74.7389 34.04L78.5669 42.5H77.5469L76.5629 40.28H71.9909L70.9949 42.5H70.0229L73.8509 34.04H74.7389ZM76.1909 39.428L74.2829 35.144L72.3629 39.428H76.1909ZM80.9914 40.028V42.5H80.0674V36.296H80.9914V37.916C81.2314 37.38 81.5714 36.952 82.0114 36.632C82.4514 36.312 82.9554 36.164 83.5234 36.188V37.184H83.4514C82.7394 37.184 82.1514 37.432 81.6874 37.928C81.2234 38.424 80.9914 39.124 80.9914 40.028ZM86.1787 37.112V40.736C86.1787 41.424 86.5267 41.768 87.2227 41.768C87.5267 41.768 87.8267 41.696 88.1227 41.552V42.344C87.7867 42.52 87.4147 42.608 87.0067 42.608C86.4707 42.608 86.0427 42.468 85.7227 42.188C85.4107 41.9 85.2547 41.456 85.2547 40.856V37.112H84.3907V36.296H85.2547V34.424H86.1787V36.296H88.1467V37.112H86.1787ZM90.8622 34.94H89.8062V33.92H90.8622V34.94ZM90.7902 42.5H89.8662V36.296H90.7902V42.5ZM94.1946 36.32H96.1626V37.112H94.2066V42.5H93.2826V37.112H92.4306V36.308H93.2826V35.768C93.2826 35.096 93.4426 34.584 93.7626 34.232C94.0906 33.872 94.5546 33.692 95.1546 33.692C95.5466 33.692 95.8866 33.744 96.1746 33.848V34.652C95.8066 34.548 95.5066 34.496 95.2746 34.496C94.5546 34.496 94.1946 34.936 94.1946 35.816V36.32ZM98.4208 34.94H97.3648V33.92H98.4208V34.94ZM98.3488 42.5H97.4248V36.296H98.3488V42.5ZM105.821 41.444C105.101 42.244 104.257 42.644 103.289 42.644C102.393 42.644 101.637 42.328 101.021 41.696C100.413 41.064 100.109 40.304 100.109 39.416C100.109 38.52 100.413 37.756 101.021 37.124C101.637 36.484 102.393 36.164 103.289 36.164C104.249 36.164 105.077 36.532 105.773 37.268L105.161 37.916C104.569 37.292 103.941 36.98 103.277 36.98C102.653 36.98 102.125 37.216 101.693 37.688C101.269 38.152 101.057 38.72 101.057 39.392C101.057 40.072 101.273 40.648 101.705 41.12C102.145 41.584 102.689 41.816 103.337 41.816C104.025 41.816 104.657 41.508 105.233 40.892L105.821 41.444ZM108.429 34.94H107.373V33.92H108.429V34.94ZM108.357 42.5H107.433V36.296H108.357V42.5ZM114.113 37.46C113.793 37.172 113.337 37.028 112.745 37.028C112.153 37.028 111.525 37.18 110.861 37.484L110.585 36.728C111.337 36.384 112.089 36.212 112.841 36.212C113.689 36.212 114.341 36.424 114.797 36.848C115.253 37.272 115.481 37.892 115.481 38.708V42.5H114.593V41.564C114.049 42.276 113.301 42.632 112.349 42.632C111.725 42.632 111.181 42.46 110.717 42.116C110.261 41.772 110.033 41.296 110.033 40.688C110.033 40.04 110.273 39.544 110.753 39.2C111.233 38.848 111.877 38.672 112.685 38.672C113.333 38.672 113.969 38.76 114.593 38.936V38.72C114.593 38.168 114.433 37.748 114.113 37.46ZM112.781 39.356C112.205 39.356 111.757 39.472 111.437 39.704C111.125 39.936 110.969 40.252 110.969 40.652C110.969 41.036 111.117 41.34 111.413 41.564C111.717 41.788 112.089 41.9 112.529 41.9C113.105 41.9 113.593 41.744 113.993 41.432C114.401 41.112 114.605 40.708 114.605 40.22V39.62C113.997 39.444 113.389 39.356 112.781 39.356ZM118.458 42.5H117.534V33.74H118.458V42.5ZM124.44 34.1H125.388V42.5H124.44V34.1ZM128.616 38.948V42.5H127.692V36.296H128.616V37.376C129.104 36.568 129.812 36.164 130.74 36.164C131.476 36.164 132.056 36.392 132.48 36.848C132.904 37.296 133.116 37.896 133.116 38.648V42.5H132.192V38.876C132.192 38.292 132.04 37.836 131.736 37.508C131.44 37.172 131.02 37.004 130.476 37.004C129.94 37.004 129.496 37.184 129.144 37.544C128.792 37.904 128.616 38.372 128.616 38.948ZM136.335 37.112V40.736C136.335 41.424 136.683 41.768 137.379 41.768C137.683 41.768 137.983 41.696 138.279 41.552V42.344C137.943 42.52 137.571 42.608 137.163 42.608C136.627 42.608 136.199 42.468 135.879 42.188C135.567 41.9 135.411 41.456 135.411 40.856V37.112H134.547V36.296H135.411V34.424H136.335V36.296H138.303V37.112H136.335ZM140.315 39.74C140.379 40.388 140.615 40.9 141.023 41.276C141.439 41.652 141.931 41.84 142.499 41.84C143.243 41.84 143.895 41.548 144.455 40.964L145.031 41.48C144.335 42.256 143.483 42.644 142.475 42.644C141.603 42.644 140.867 42.344 140.267 41.744C139.675 41.136 139.379 40.356 139.379 39.404C139.379 38.5 139.663 37.736 140.231 37.112C140.799 36.48 141.507 36.164 142.355 36.164C143.243 36.164 143.947 36.476 144.467 37.1C144.987 37.724 145.247 38.508 145.247 39.452C145.247 39.572 145.243 39.668 145.235 39.74H140.315ZM140.315 39.056H144.311C144.263 38.448 144.067 37.944 143.723 37.544C143.379 37.144 142.915 36.944 142.331 36.944C141.795 36.944 141.339 37.144 140.963 37.544C140.595 37.944 140.379 38.448 140.315 39.056ZM147.872 42.5H146.948V33.74H147.872V42.5ZM151.025 42.5H150.101V33.74H151.025V42.5ZM154.249 34.94H153.193V33.92H154.249V34.94ZM154.177 42.5H153.253V36.296H154.177V42.5ZM162.225 41.42C162.225 42.404 161.941 43.152 161.373 43.664C160.813 44.184 160.045 44.444 159.069 44.444C158.021 44.444 157.081 44.156 156.249 43.58L156.669 42.86C157.397 43.388 158.193 43.652 159.057 43.652C159.753 43.652 160.301 43.46 160.701 43.076C161.109 42.7 161.313 42.156 161.313 41.444V40.712C160.657 41.584 159.845 42.02 158.877 42.02C158.093 42.02 157.409 41.752 156.825 41.216C156.249 40.68 155.961 39.976 155.961 39.104C155.961 38.232 156.253 37.524 156.837 36.98C157.421 36.436 158.101 36.164 158.877 36.164C159.869 36.164 160.677 36.58 161.301 37.412V36.296H162.225V41.42ZM161.337 39.092C161.337 38.468 161.109 37.96 160.653 37.568C160.205 37.176 159.673 36.98 159.057 36.98C158.449 36.98 157.937 37.172 157.521 37.556C157.113 37.94 156.909 38.448 156.909 39.08C156.909 39.704 157.117 40.216 157.533 40.616C157.957 41.008 158.465 41.204 159.057 41.204C159.665 41.204 160.197 41.008 160.653 40.616C161.109 40.216 161.337 39.708 161.337 39.092ZM164.842 39.74C164.906 40.388 165.142 40.9 165.55 41.276C165.966 41.652 166.458 41.84 167.026 41.84C167.77 41.84 168.422 41.548 168.982 40.964L169.558 41.48C168.862 42.256 168.01 42.644 167.002 42.644C166.13 42.644 165.394 42.344 164.794 41.744C164.202 41.136 163.906 40.356 163.906 39.404C163.906 38.5 164.19 37.736 164.758 37.112C165.326 36.48 166.034 36.164 166.882 36.164C167.77 36.164 168.474 36.476 168.994 37.1C169.514 37.724 169.774 38.508 169.774 39.452C169.774 39.572 169.77 39.668 169.762 39.74H164.842ZM164.842 39.056H168.838C168.79 38.448 168.594 37.944 168.25 37.544C167.906 37.144 167.442 36.944 166.858 36.944C166.322 36.944 165.866 37.144 165.49 37.544C165.122 37.944 164.906 38.448 164.842 39.056ZM172.316 38.948V42.5H171.392V36.296H172.316V37.376C172.804 36.568 173.512 36.164 174.44 36.164C175.176 36.164 175.756 36.392 176.18 36.848C176.604 37.296 176.816 37.896 176.816 38.648V42.5H175.892V38.876C175.892 38.292 175.74 37.836 175.436 37.508C175.14 37.172 174.72 37.004 174.176 37.004C173.64 37.004 173.196 37.184 172.844 37.544C172.492 37.904 172.316 38.372 172.316 38.948ZM184.114 41.444C183.394 42.244 182.55 42.644 181.582 42.644C180.686 42.644 179.93 42.328 179.314 41.696C178.706 41.064 178.402 40.304 178.402 39.416C178.402 38.52 178.706 37.756 179.314 37.124C179.93 36.484 180.686 36.164 181.582 36.164C182.542 36.164 183.37 36.532 184.066 37.268L183.454 37.916C182.862 37.292 182.234 36.98 181.57 36.98C180.946 36.98 180.418 37.216 179.986 37.688C179.562 38.152 179.35 38.72 179.35 39.392C179.35 40.072 179.566 40.648 179.998 41.12C180.438 41.584 180.982 41.816 181.63 41.816C182.318 41.816 182.95 41.508 183.526 40.892L184.114 41.444ZM186.018 39.74C186.082 40.388 186.318 40.9 186.726 41.276C187.142 41.652 187.634 41.84 188.202 41.84C188.946 41.84 189.598 41.548 190.158 40.964L190.734 41.48C190.038 42.256 189.186 42.644 188.178 42.644C187.306 42.644 186.57 42.344 185.97 41.744C185.378 41.136 185.082 40.356 185.082 39.404C185.082 38.5 185.366 37.736 185.934 37.112C186.502 36.48 187.21 36.164 188.058 36.164C188.946 36.164 189.65 36.476 190.17 37.1C190.69 37.724 190.95 38.508 190.95 39.452C190.95 39.572 190.946 39.668 190.938 39.74H186.018ZM186.018 39.056H190.014C189.966 38.448 189.77 37.944 189.426 37.544C189.082 37.144 188.618 36.944 188.034 36.944C187.498 36.944 187.042 37.144 186.666 37.544C186.298 37.944 186.082 38.448 186.018 39.056ZM195.651 39.38H192.315V38.408H195.651V39.38ZM203.37 42.5H202.446V41.252C201.822 42.172 201.03 42.632 200.07 42.632C199.278 42.632 198.586 42.34 197.994 41.756C197.402 41.164 197.106 40.38 197.106 39.404C197.106 38.428 197.402 37.644 197.994 37.052C198.586 36.46 199.278 36.164 200.07 36.164C201.046 36.164 201.838 36.604 202.446 37.484V33.74H203.37V42.5ZM202.482 39.392C202.482 38.696 202.258 38.124 201.81 37.676C201.362 37.22 200.838 36.992 200.238 36.992C199.614 36.992 199.094 37.208 198.678 37.64C198.262 38.072 198.054 38.656 198.054 39.392C198.054 40.112 198.266 40.696 198.69 41.144C199.114 41.584 199.63 41.804 200.238 41.804C200.838 41.804 201.362 41.58 201.81 41.132C202.258 40.676 202.482 40.096 202.482 39.392ZM206.359 40.028V42.5H205.435V36.296H206.359V37.916C206.599 37.38 206.939 36.952 207.379 36.632C207.819 36.312 208.323 36.164 208.891 36.188V37.184H208.819C208.107 37.184 207.519 37.432 207.055 37.928C206.591 38.424 206.359 39.124 206.359 40.028ZM211.378 34.94H210.322V33.92H211.378V34.94ZM211.306 42.5H210.382V36.296H211.306V42.5ZM215.946 41.444L218.046 36.296H219.042L216.342 42.548H215.526L212.838 36.296H213.858L215.946 41.444ZM220.682 39.74C220.746 40.388 220.982 40.9 221.39 41.276C221.806 41.652 222.298 41.84 222.866 41.84C223.61 41.84 224.262 41.548 224.822 40.964L225.398 41.48C224.702 42.256 223.85 42.644 222.842 42.644C221.97 42.644 221.234 42.344 220.634 41.744C220.042 41.136 219.746 40.356 219.746 39.404C219.746 38.5 220.03 37.736 220.598 37.112C221.166 36.48 221.874 36.164 222.722 36.164C223.61 36.164 224.314 36.476 224.834 37.1C225.354 37.724 225.614 38.508 225.614 39.452C225.614 39.572 225.61 39.668 225.602 39.74H220.682ZM220.682 39.056H224.678C224.63 38.448 224.434 37.944 224.09 37.544C223.746 37.144 223.282 36.944 222.698 36.944C222.162 36.944 221.706 37.144 221.33 37.544C220.962 37.944 220.746 38.448 220.682 39.056ZM228.155 38.948V42.5H227.231V36.296H228.155V37.376C228.643 36.568 229.351 36.164 230.279 36.164C231.015 36.164 231.595 36.392 232.019 36.848C232.443 37.296 232.655 37.896 232.655 38.648V42.5H231.731V38.876C231.731 38.292 231.579 37.836 231.275 37.508C230.979 37.172 230.559 37.004 230.015 37.004C229.479 37.004 229.035 37.184 228.683 37.544C228.331 37.904 228.155 38.372 228.155 38.948ZM77.6909 56.5H76.5269L74.0909 53.236H71.6909V56.5H70.7429V48.1H74.3549C75.2749 48.1 76.0109 48.328 76.5629 48.784C77.1149 49.24 77.3909 49.848 77.3909 50.608C77.3909 51.288 77.1829 51.836 76.7669 52.252C76.3509 52.668 75.7989 52.94 75.1109 53.068L77.6909 56.5ZM76.4309 50.644C76.4309 50.124 76.2429 49.716 75.8669 49.42C75.4909 49.124 74.9629 48.976 74.2829 48.976H71.6909V52.384H74.2709C74.9109 52.384 75.4309 52.228 75.8309 51.916C76.2309 51.604 76.4309 51.18 76.4309 50.644ZM85.5948 54.832V48.1H86.5188V56.5H85.7628L80.3388 49.612V56.5H79.4148V48.1H80.3028L85.5948 54.832ZM92.8913 48.04L96.7193 56.5H95.6993L94.7153 54.28H90.1433L89.1473 56.5H88.1753L92.0033 48.04H92.8913ZM94.3433 53.428L92.4353 49.144L90.5153 53.428H94.3433ZM105.549 48.1C106.381 48.1 107.045 48.292 107.541 48.676C108.037 49.052 108.285 49.56 108.285 50.2C108.285 51.12 107.841 51.772 106.953 52.156C108.153 52.516 108.753 53.196 108.753 54.196C108.753 54.916 108.477 55.48 107.925 55.888C107.373 56.296 106.633 56.5 105.705 56.5H101.973V48.1H105.549ZM105.393 51.844C105.977 51.844 106.445 51.716 106.797 51.46C107.149 51.196 107.325 50.82 107.325 50.332C107.325 49.908 107.161 49.572 106.833 49.324C106.513 49.076 106.057 48.952 105.465 48.952H102.909V51.844H105.393ZM105.729 55.648C106.369 55.648 106.873 55.516 107.241 55.252C107.609 54.98 107.793 54.608 107.793 54.136C107.793 53.672 107.601 53.316 107.217 53.068C106.841 52.812 106.289 52.684 105.561 52.684H102.909V55.648H105.729ZM111.558 48.94H110.502V47.92H111.558V48.94ZM111.486 56.5H110.562V50.296H111.486V56.5ZM118.79 51.112C119.406 51.736 119.714 52.496 119.714 53.392C119.714 54.288 119.402 55.056 118.778 55.696C118.154 56.328 117.382 56.644 116.462 56.644C115.542 56.644 114.774 56.332 114.158 55.708C113.55 55.076 113.246 54.312 113.246 53.416C113.246 52.52 113.554 51.756 114.17 51.124C114.794 50.484 115.566 50.164 116.486 50.164C117.406 50.164 118.174 50.48 118.79 51.112ZM118.766 53.416C118.766 52.736 118.542 52.16 118.094 51.688C117.654 51.216 117.11 50.98 116.462 50.98C115.798 50.98 115.254 51.212 114.83 51.676C114.406 52.14 114.194 52.712 114.194 53.392C114.194 54.072 114.414 54.648 114.854 55.12C115.294 55.584 115.838 55.816 116.486 55.816C117.15 55.816 117.694 55.584 118.118 55.12C118.55 54.656 118.766 54.088 118.766 53.416ZM127.58 48.1V48.976H122.492V51.976H127.04V52.84H122.492V56.5H121.544V48.1H127.58ZM134.247 51.112C134.863 51.736 135.171 52.496 135.171 53.392C135.171 54.288 134.859 55.056 134.235 55.696C133.611 56.328 132.839 56.644 131.919 56.644C130.999 56.644 130.231 56.332 129.615 55.708C129.007 55.076 128.703 54.312 128.703 53.416C128.703 52.52 129.011 51.756 129.627 51.124C130.251 50.484 131.023 50.164 131.943 50.164C132.863 50.164 133.631 50.48 134.247 51.112ZM134.223 53.416C134.223 52.736 133.999 52.16 133.551 51.688C133.111 51.216 132.567 50.98 131.919 50.98C131.255 50.98 130.711 51.212 130.287 51.676C129.863 52.14 129.651 52.712 129.651 53.392C129.651 54.072 129.871 54.648 130.311 55.12C130.751 55.584 131.295 55.816 131.943 55.816C132.607 55.816 133.151 55.584 133.575 55.12C134.007 54.656 134.223 54.088 134.223 53.416ZM141.249 53.848V50.296H142.161V56.5H141.249V55.42C140.745 56.228 140.037 56.632 139.125 56.632C138.389 56.632 137.809 56.408 137.385 55.96C136.961 55.504 136.749 54.9 136.749 54.148V50.296H137.673V53.92C137.673 54.504 137.821 54.964 138.117 55.3C138.421 55.628 138.845 55.792 139.389 55.792C139.925 55.792 140.369 55.612 140.721 55.252C141.073 54.892 141.249 54.424 141.249 53.848ZM145.163 52.948V56.5H144.239V50.296H145.163V51.376C145.651 50.568 146.359 50.164 147.287 50.164C148.023 50.164 148.603 50.392 149.027 50.848C149.451 51.296 149.663 51.896 149.663 52.648V56.5H148.739V52.876C148.739 52.292 148.587 51.836 148.283 51.508C147.987 51.172 147.567 51.004 147.023 51.004C146.487 51.004 146.043 51.184 145.691 51.544C145.339 51.904 145.163 52.372 145.163 52.948ZM157.538 56.5H156.614V55.252C155.99 56.172 155.198 56.632 154.238 56.632C153.446 56.632 152.754 56.34 152.162 55.756C151.57 55.164 151.274 54.38 151.274 53.404C151.274 52.428 151.57 51.644 152.162 51.052C152.754 50.46 153.446 50.164 154.238 50.164C155.214 50.164 156.006 50.604 156.614 51.484V47.74H157.538V56.5ZM156.65 53.392C156.65 52.696 156.426 52.124 155.978 51.676C155.53 51.22 155.006 50.992 154.406 50.992C153.782 50.992 153.262 51.208 152.846 51.64C152.43 52.072 152.222 52.656 152.222 53.392C152.222 54.112 152.434 54.696 152.858 55.144C153.282 55.584 153.798 55.804 154.406 55.804C155.006 55.804 155.53 55.58 155.978 55.132C156.426 54.676 156.65 54.096 156.65 53.392ZM160.527 54.028V56.5H159.603V50.296H160.527V51.916C160.767 51.38 161.107 50.952 161.547 50.632C161.987 50.312 162.491 50.164 163.059 50.188V51.184H162.987C162.275 51.184 161.687 51.432 161.223 51.928C160.759 52.424 160.527 53.124 160.527 54.028ZM170.094 50.296L167.49 56.704C167.226 57.336 166.934 57.784 166.614 58.048C166.294 58.32 165.898 58.456 165.426 58.456C164.978 58.456 164.538 58.352 164.106 58.144L164.418 57.412C164.714 57.564 165.038 57.64 165.39 57.64C165.67 57.64 165.906 57.552 166.098 57.376C166.29 57.208 166.478 56.908 166.662 56.476L163.842 50.296H164.862L167.118 55.468L169.11 50.296H170.094Z" fill="#010101"/>
<defs>
<clipPath id="clip0_5483_1343">
<rect width="62.5549" height="64" fill="white" transform="translate(0 0.5)"/>
</clipPath>
</defs>
</svg>
