<svg width="235" height="65" viewBox="0 0 235 65" fill="none" xmlns="http://www.w3.org/2000/svg">
<g clip-path="url(#clip0_5483_1343)">
<path d="M62.5549 32.6786C62.5549 49.9566 48.5477 63.9561 31.2775 63.9561C14.0073 63.9561 0 49.9566 0 32.6786C0 15.4006 13.9995 1.40112 31.2775 1.40112C48.5554 1.40112 62.5549 15.4006 62.5549 32.6786Z" fill="#011F5B"/>
<path d="M12.1505 38.3576H23.9203C24.8759 38.3576 25.6606 37.5807 25.6606 36.6174V36.1435C25.6606 35.5142 26.1733 35.0015 26.8026 35.0015H40.569C40.7322 35.0015 40.872 34.8694 40.872 34.6985C40.872 34.5276 40.7399 34.3955 40.569 34.3955H26.8026C25.8393 34.3955 25.0624 35.1802 25.0624 36.1357V36.6096C25.0624 37.2389 24.5496 37.7517 23.9203 37.7517H12.1505C11.9874 37.7517 11.8475 37.8837 11.8475 38.0546C11.8475 38.2256 11.9796 38.3576 12.1505 38.3576Z" fill="white"/>
<path d="M26.6162 64.5C26.3054 64.5 25.9791 64.4379 25.6761 64.3135C25.4664 64.2281 20.5021 62.0606 19.2979 55.224C17.7674 46.5694 24.4875 43.0812 29.8869 40.2766C34.6725 37.7906 37.578 36.0426 37.578 32.7874C37.578 28.9108 35.0842 26.9608 31.0133 24.1018C26.9735 21.274 22.4054 18.0576 22.4054 11.4852C22.4054 6.21786 25.4431 3.12585 28.0922 1.01271C29.1255 0.189211 30.6404 0.360126 31.4639 1.39339C32.2874 2.42665 32.1165 3.94158 31.0833 4.76508C28.2942 6.98698 27.2066 8.86705 27.2066 11.4774C27.2066 15.3541 29.7004 17.3041 33.7713 20.1552C37.8111 22.9909 42.3792 26.1994 42.3792 32.7719C42.3792 39.3444 36.9177 42.0169 32.101 44.5184C26.5229 47.4162 23.1512 49.4361 24.0291 54.3694C24.7672 58.5335 27.4707 59.8309 27.5873 59.8853C28.807 60.398 29.3663 61.8042 28.8458 63.0239C28.4574 63.9406 27.564 64.4845 26.6239 64.4845" fill="white"/>
<path d="M26.6084 63.1015C26.4763 63.1015 26.3442 63.0782 26.2199 63.0238C26.0413 62.9461 21.7528 61.0738 20.673 54.983C19.3212 47.3384 25.2721 44.2464 30.5317 41.5196C34.8745 39.2666 38.9764 37.1301 38.9764 32.7873C38.9764 27.9862 35.496 25.539 31.8135 22.9597C27.8747 20.194 23.7961 17.335 23.7961 11.4929C23.7961 6.82376 26.554 4.03473 28.9546 2.11582C29.3819 1.77399 30.0189 1.84391 30.3608 2.2712C30.7026 2.70626 30.6327 3.33554 30.2054 3.67737C27.9136 5.50305 25.8004 7.70941 25.8004 11.4851C25.8004 16.2863 29.2809 18.7334 32.9633 21.3127C36.9021 24.0784 40.9808 26.9374 40.9808 32.7796C40.9808 38.6218 36.1408 40.8514 31.4562 43.2831C26.3675 45.9245 21.5508 48.4261 22.6463 54.6256C23.5319 59.6521 26.9658 61.1515 26.9968 61.167C27.5018 61.3846 27.7426 61.9672 27.5329 62.48C27.3697 62.8607 27.0046 63.0937 26.6084 63.0937" fill="#990001"/>
<path d="M31.091 12.0833H27.0823C26.6395 12.0833 26.2821 11.7259 26.2821 11.2831C26.2821 10.8403 26.6395 10.4829 27.0823 10.4829H31.091C31.5338 10.4829 31.8912 10.8403 31.8912 11.2831C31.8912 11.7259 31.5338 12.0833 31.091 12.0833Z" fill="white"/>
<!-- Truncated for brevity; full SVG paths retained from root file -->
<path d="M74.7389 34.04L78.5669 42.5H77.5469L76.5629 40.28H71.9909L70.9949 42.5H70.0229L73.8509 34.04H74.7389Z" fill="#010101"/>
</g>
<defs>
<clipPath id="clip0_5483_1343">
<rect width="62.5549" height="64" fill="white" transform="translate(0 0.5)"/>
</clipPath>
</defs>
</svg>

